<?xml version="1.0" encoding="utf-8"?>
<!-- Generator: Adobe Illustrator 26.0.3, SVG Export Plug-In . SVG Version: 6.00 Build 0)  -->
<svg version="1.1" id="Слой_1" xmlns="http://www.w3.org/2000/svg" xmlns:xlink="http://www.w3.org/1999/xlink" x="0px" y="0px"
	 viewBox="0 0 78 56" style="enable-background:new 0 0 78 56;" xml:space="preserve">
<style type="text/css">
	.st0{fill:#FFFFFF;}
</style>
<g>
	<polygon class="st0" points="28.6,14.6 50.2,14.6 53.6,17.5 53.6,14.6 53.6,11 27.7,11 24.9,12.4 24.9,18.5 49.5,33.2 49.5,35.4 
		39,41.5 28.8,36.5 22.8,36.5 39,45.7 53.1,37.4 53.1,31.2 28.5,16.5 28.5,14.6 	"/>
	<polygon class="st0" points="43.9,34.8 20.5,21.2 20.5,9.8 25.6,6.8 52.5,6.8 57.5,9.9 57.5,19.2 61.1,21.6 61.1,7.9 53.6,3.2 
		24.6,3.2 16.9,7.8 16.9,23.2 40.1,36.9 	"/>
	<polygon class="st0" points="44.9,16.9 37.8,17 57.6,28.6 57.6,40.1 38.7,51 20.4,40.2 20.4,30.6 16.8,28.4 16.8,42.2 38.7,55.2 
		61.2,42.2 61.2,26.6 	"/>
</g>
</svg>
