<svg id="Слой_1" data-name="Слой 1" xmlns="http://www.w3.org/2000/svg" xmlns:xlink="http://www.w3.org/1999/xlink" viewBox="0 0 226 63.08"><defs><style>.cls-1{fill:#fff;}.cls-2{clip-path:url(#clip-path);}.cls-3{clip-path:url(#clip-path-2);}.cls-4{clip-path:url(#clip-path-3);}</style><clipPath id="clip-path"><polygon class="cls-1" points="13.02 9.9 9.66 11.58 9.66 18.9 39.02 36.48 39.02 39.03 26.48 46.34 14.26 40.34 7.17 40.35 26.51 51.31 43.33 41.51 43.33 34.04 13.97 16.45 13.97 14.24 14.04 14.21 39.89 14.21 43.94 17.66 43.94 14.21 43.94 9.9 13.02 9.9"/></clipPath><clipPath id="clip-path-2"><polygon class="cls-1" points="9.27 0.62 0.12 6.07 0.12 24.52 27.87 40.9 32.34 38.3 4.43 22.06 4.43 8.51 10.45 4.93 42.64 4.93 48.56 8.61 48.56 19.76 52.87 22.64 52.87 6.22 43.87 0.62 9.27 0.62"/></clipPath><clipPath id="clip-path-3"><polygon class="cls-1" points="25.1 17.06 48.68 30.99 48.68 44.65 26.14 57.69 4.31 44.78 4.31 33.29 0 30.67 0 47.24 26.12 62.68 52.99 47.13 52.99 28.54 33.57 17.04 25.1 17.06"/></clipPath></defs><polygon class="cls-1" points="13.02 9.9 9.66 11.58 9.66 18.9 39.02 36.48 39.02 39.03 26.48 46.34 14.26 40.34 7.17 40.35 26.51 51.31 43.33 41.51 43.33 34.04 13.97 16.45 13.97 14.24 14.04 14.21 39.89 14.21 43.94 17.66 43.94 14.21 43.94 9.9 13.02 9.9"/><g class="cls-2"><rect class="cls-1" x="7.17" y="9.9" width="36.77" height="41.41"/></g><polygon class="cls-1" points="9.27 0.62 0.12 6.07 0.12 24.52 27.87 40.9 32.34 38.3 4.43 22.06 4.43 8.51 10.45 4.93 42.64 4.93 48.56 8.61 48.56 19.76 52.87 22.64 52.87 6.22 43.87 0.62 9.27 0.62"/><g class="cls-3"><rect class="cls-1" x="0.12" y="0.62" width="52.75" height="40.29"/></g><polygon class="cls-1" points="25.1 17.06 48.68 30.99 48.68 44.65 26.14 57.69 4.31 44.78 4.31 33.29 0 30.67 0 47.24 26.12 62.68 52.99 47.13 52.99 28.54 33.57 17.04 25.1 17.06"/><g class="cls-4"><rect class="cls-1" y="17.04" width="52.99" height="45.63"/></g><path class="cls-1" d="M76.34,5.82a5,5,0,0,1,2.42,4.42v.33H73v-.11a1.79,1.79,0,0,0-.62-1.39,2.7,2.7,0,0,0-1.86-.56,3.94,3.94,0,0,0-1.88.36,1.06,1.06,0,0,0-.66.9,1.19,1.19,0,0,0,.89,1.11,17.49,17.49,0,0,0,2.87.75,33,33,0,0,1,3.81,1,6.42,6.42,0,0,1,2.6,1.68,4.55,4.55,0,0,1,1.14,3.18,5.75,5.75,0,0,1-2.3,5,10.32,10.32,0,0,1-6.14,1.65,13.6,13.6,0,0,1-7-1.51q-2.49-1.5-2.49-5.32H67.2A2.14,2.14,0,0,0,68,19.28a4.45,4.45,0,0,0,2.34.48,6.24,6.24,0,0,0,1.93-.25,1,1,0,0,0,.77-1,1.14,1.14,0,0,0-.85-1,17.21,17.21,0,0,0-2.77-.74,31.12,31.12,0,0,1-3.88-1,6.66,6.66,0,0,1-2.67-1.8,4.87,4.87,0,0,1-1.14-3.4,5,5,0,0,1,2.44-4.64A11.67,11.67,0,0,1,70.3,4.33a11.19,11.19,0,0,1,6,1.49"/><path class="cls-1" d="M84.23,6.85q2.7-2.52,7.65-2.52t7.66,2.54q2.7,2.54,2.7,7.38A11.16,11.16,0,0,1,101,19.69a7.89,7.89,0,0,1-3.52,3.36l4.37,4.43H94.55l-3-3.32q-4.84-.07-7.45-2.6c-1.74-1.68-2.6-4.12-2.6-7.31s.89-5.72,2.68-7.4M94.9,10.13a4.39,4.39,0,0,0-6,0,4.76,4.76,0,0,0-1,3.23v1.78a4.76,4.76,0,0,0,1,3.23,4.39,4.39,0,0,0,6,0,4.72,4.72,0,0,0,1-3.23V13.36a4.72,4.72,0,0,0-1-3.23"/><path class="cls-1" d="M122.16,22.1c-1.66,1.38-4,2.06-7,2.06s-5.4-.68-7.06-2.06a7.32,7.32,0,0,1-2.49-6V4.67h6.15V16a3.7,3.7,0,0,0,.87,2.58,3.73,3.73,0,0,0,5,0,3.65,3.65,0,0,0,.88-2.56V4.67h6.16V16.12a7.34,7.34,0,0,1-2.48,6"/><path class="cls-1" d="M140.65,23.83l-.81-2.7h-6.71l-.81,2.7H126l7-19.16h7.16l7,19.16Zm-6.24-7h4.15l-2-6.82h-.12Z"/><polygon class="cls-1" points="158.59 9.57 158.59 23.83 152.43 23.83 152.43 9.57 146.14 9.57 146.14 4.67 164.86 4.67 164.86 9.57 158.59 9.57"/><polygon class="cls-1" points="178.7 9.57 178.7 23.83 172.54 23.83 172.54 9.57 166.25 9.57 166.25 4.67 184.97 4.67 184.97 9.57 178.7 9.57"/><polygon class="cls-1" points="187.78 4.67 204.35 4.67 204.35 9.26 193.94 9.26 193.94 11.91 202.85 11.91 202.85 16.31 193.94 16.31 193.94 19.23 204.55 19.23 204.55 23.83 187.78 23.83 187.78 4.67"/><path class="cls-1" d="M225.13,13.72a5.47,5.47,0,0,1-2.76,2.09l4.26,8h-6.9l-3.4-7H214v7h-6.15V4.67h11.72a7.31,7.31,0,0,1,3.53.79,5.37,5.37,0,0,1,2.2,2.15,6,6,0,0,1,.74,2.93,5.63,5.63,0,0,1-1,3.18m-5.82-4.18a1.71,1.71,0,0,0-1.23-.5h-4v3.54h4a1.65,1.65,0,0,0,1.23-.52,1.84,1.84,0,0,0,0-2.52"/><path class="cls-1" d="M76.65,30a5,5,0,0,1,2.42,4.42v.33H73.3V34.6a1.78,1.78,0,0,0-.61-1.39,2.7,2.7,0,0,0-1.86-.56,4,4,0,0,0-1.89.36,1,1,0,0,0-.65.89A1.2,1.2,0,0,0,69.18,35a17.49,17.49,0,0,0,2.87.75,32.23,32.23,0,0,1,3.8,1,6.45,6.45,0,0,1,2.61,1.68,4.54,4.54,0,0,1,1.14,3.18,5.77,5.77,0,0,1-2.3,5,10.32,10.32,0,0,1-6.14,1.65,13.57,13.57,0,0,1-7-1.51c-1.66-1-2.49-2.78-2.49-5.32h5.82a2.16,2.16,0,0,0,.75,1.94,4.45,4.45,0,0,0,2.34.48,6.26,6.26,0,0,0,1.94-.25,1,1,0,0,0,.76-1,1.13,1.13,0,0,0-.85-1,16.91,16.91,0,0,0-2.77-.74,33.29,33.29,0,0,1-3.87-1A6.66,6.66,0,0,1,63.14,38,4.87,4.87,0,0,1,62,34.6,5.06,5.06,0,0,1,64.43,30a11.7,11.7,0,0,1,6.17-1.49A11.23,11.23,0,0,1,76.65,30"/><path class="cls-1" d="M84.54,31q2.68-2.52,7.65-2.52c3.3,0,5.86.85,7.66,2.54s2.7,4.15,2.7,7.38a11.28,11.28,0,0,1-1.21,5.44,7.89,7.89,0,0,1-3.52,3.36l4.37,4.43H94.86l-3-3.32c-3.23,0-5.72-.92-7.45-2.6s-2.61-4.12-2.61-7.31.9-5.72,2.69-7.4m10.67,3.28a4.39,4.39,0,0,0-6,0,4.76,4.76,0,0,0-1,3.23v1.78a4.76,4.76,0,0,0,1,3.23,4.39,4.39,0,0,0,6,0,4.72,4.72,0,0,0,1-3.23V37.5a4.72,4.72,0,0,0-1-3.23"/><path class="cls-1" d="M122.46,46.24c-1.65,1.38-4,2.06-7,2.06s-5.4-.68-7.06-2.06a7.29,7.29,0,0,1-2.49-6V28.81H112V40.17a3.74,3.74,0,0,0,.86,2.58,3.75,3.75,0,0,0,5,0,3.65,3.65,0,0,0,.88-2.56V28.81h6.15V40.25a7.32,7.32,0,0,1-2.48,6"/><path class="cls-1" d="M141,48l-.81-2.7h-6.71l-.81,2.7h-6.29l7-19.16h7.16l7,19.16Zm-6.24-7h4.15l-2-6.83h-.11Z"/><path class="cls-1" d="M168.15,38.39q0,9.59-10.06,9.58h-8.3V28.81h8.3q10,0,10.06,9.58m-12.21,5h2q3.87,0,3.87-4.15V37.55c0-2.76-1.29-4.15-3.87-4.15h-2Z"/></svg>